<svg width="138" height="215" viewBox="0 0 138 215" fill="none" xmlns="http://www.w3.org/2000/svg">
<path d="M68.5455 125.273C61.2121 125.273 54.697 124.015 49 121.5C43.3333 118.955 38.8788 115.455 35.6364 111C32.3939 106.545 30.7576 101.424 30.7273 95.6364H56.1818C56.2121 97.4242 56.7576 99.0303 57.8182 100.455C58.9091 101.848 60.3939 102.939 62.2727 103.727C64.1515 104.515 66.303 104.909 68.7273 104.909C71.0606 104.909 73.1212 104.5 74.9091 103.682C76.697 102.833 78.0909 101.667 79.0909 100.182C80.0909 98.697 80.5758 97 80.5455 95.0909C80.5758 93.2121 80 91.5455 78.8182 90.0909C77.6667 88.6364 76.0455 87.5 73.9545 86.6818C71.8636 85.8636 69.4545 85.4545 66.7273 85.4545H57.2727V68H66.7273C69.2424 68 71.4545 67.5909 73.3636 66.7727C75.303 65.9545 76.803 64.8182 77.8636 63.3636C78.9545 61.9091 79.4848 60.2424 79.4545 58.3636C79.4848 56.5455 79.0455 54.9394 78.1364 53.5455C77.2273 52.1515 75.9545 51.0606 74.3182 50.2727C72.7121 49.4848 70.8485 49.0909 68.7273 49.0909C66.4242 49.0909 64.3636 49.5 62.5455 50.3182C60.7576 51.1364 59.3485 52.2727 58.3182 53.7273C57.2879 55.1818 56.7576 56.8485 56.7273 58.7273H32.5455C32.5758 53.0303 34.1364 48 37.2273 43.6364C40.3485 39.2727 44.6212 35.8485 50.0455 33.3636C55.4697 30.8788 61.697 29.6364 68.7273 29.6364C75.6061 29.6364 81.6818 30.803 86.9545 33.1364C92.2576 35.4697 96.3939 38.6818 99.3636 42.7727C102.364 46.8333 103.848 51.4848 103.818 56.7273C103.879 61.9394 102.091 66.2121 98.4545 69.5455C94.8485 72.8788 90.2727 74.8485 84.7273 75.4545V76.1818C92.2424 77 97.8939 79.303 101.682 83.0909C105.47 86.8485 107.333 91.5758 107.273 97.2727C107.303 102.727 105.667 107.561 102.364 111.773C99.0909 115.985 94.5303 119.288 88.6818 121.682C82.8636 124.076 76.1515 125.273 68.5455 125.273Z" fill="url(#paint0_linear_708_1522)"/>
<path d="M23 162.669C18.728 158.305 15.5053 153.025 13.5759 147.23C11.6466 141.435 11.0613 135.278 11.8643 129.223C12.6673 123.169 14.8376 117.376 18.2108 112.285C21.584 107.194 26.0716 102.937 31.3337 99.8364C36.5958 96.7362 42.4944 94.8742 48.5827 94.3913C54.671 93.9085 60.7894 94.8174 66.4744 97.0494C72.1594 99.2814 77.2619 102.778 81.3955 107.274C85.529 111.77 88.5852 117.148 90.3325 123H100.625C106.177 122.999 111.581 124.784 116.041 128.091C120.5 131.398 123.777 136.052 125.389 141.364C127 146.677 126.86 152.367 124.99 157.594C123.119 162.821 119.617 167.308 115 170.391" stroke="black" stroke-width="8" stroke-linecap="round" stroke-linejoin="round"/>
<path d="M69 146V197.75" stroke="black" stroke-width="8" stroke-linecap="round" stroke-linejoin="round"/>
<path d="M46 174.75L69 197.75L92 174.75" stroke="black" stroke-width="8" stroke-linecap="round" stroke-linejoin="round"/>
<defs>
<linearGradient id="paint0_linear_708_1522" x1="69.5" y1="0" x2="69.5" y2="155" gradientUnits="userSpaceOnUse">
<stop stop-opacity="0.54"/>
<stop offset="0.610416" stop-opacity="0"/>
</linearGradient>
</defs>
</svg>
