<svg width="138" height="221" viewBox="0 0 138 221" fill="none" xmlns="http://www.w3.org/2000/svg">
<path d="M32.1818 124V105.818L66.9091 77.0909C69.2121 75.1818 71.1818 73.3939 72.8182 71.7273C74.4849 70.0303 75.7576 68.2879 76.6364 66.5C77.5455 64.7121 78 62.7273 78 60.5455C78 58.1515 77.4848 56.1061 76.4545 54.4091C75.4545 52.7121 74.0606 51.4091 72.2727 50.5C70.4849 49.5606 68.4242 49.0909 66.0909 49.0909C63.7576 49.0909 61.697 49.5606 59.9091 50.5C58.1515 51.4394 56.7879 52.8182 55.8182 54.6364C54.8485 56.4545 54.3636 58.6667 54.3636 61.2727H30.3636C30.3636 54.7273 31.8333 49.0909 34.7727 44.3636C37.7121 39.6364 41.8636 36 47.2273 33.4545C52.5909 30.9091 58.8788 29.6364 66.0909 29.6364C73.5455 29.6364 80 30.8333 85.4545 33.2273C90.9394 35.5909 95.1667 38.9242 98.1364 43.2273C101.136 47.5303 102.636 52.5758 102.636 58.3636C102.636 61.9394 101.894 65.5 100.409 69.0455C98.9242 72.5606 96.2576 76.4545 92.4091 80.7273C88.5606 85 83.0909 90.0909 76 96L67.2727 103.273V103.818H103.636V124H32.1818Z" fill="url(#paint0_linear_708_1521)"/>
<path d="M115 117.5H23C16.6487 117.5 11.5 122.649 11.5 129V175C11.5 181.351 16.6487 186.5 23 186.5H115C121.351 186.5 126.5 181.351 126.5 175V129C126.5 122.649 121.351 117.5 115 117.5Z" stroke="black" stroke-width="8" stroke-linecap="round" stroke-linejoin="round"/>
<path d="M69 152H69.0575" stroke="black" stroke-width="8" stroke-linecap="round" stroke-linejoin="round"/>
<path d="M97.75 152H97.8075" stroke="black" stroke-width="8" stroke-linecap="round" stroke-linejoin="round"/>
<path d="M40.25 152H40.3075" stroke="black" stroke-width="8" stroke-linecap="round" stroke-linejoin="round"/>
<defs>
<linearGradient id="paint0_linear_708_1521" x1="67.5" y1="0" x2="67.5" y2="155" gradientUnits="userSpaceOnUse">
<stop stop-opacity="0.54"/>
<stop offset="0.688541" stop-opacity="0"/>
<stop offset="1" stop-opacity="0"/>
</linearGradient>
</defs>
</svg>
